<svg width="97" height="101" viewBox="0 0 97 101" fill="none" xmlns="http://www.w3.org/2000/svg">
<path d="M81 95H89.7869C93.7213 95 97 91.8182 97 88C97 84.1818 93.7213 81 89.7869 81H81C82.3115 83.0364 83.0984 85.4545 83.0984 88C83.0984 90.5455 82.3115 92.9636 81 95Z" fill="black"/>
<path d="M48 81H7.09677C3.22581 81 0 84.1818 0 88C0 91.8182 3.22581 95 7.09677 95H48C46.7097 92.9636 45.9355 90.5455 45.9355 88C45.9355 85.4545 46.7097 83.0364 48 81Z" fill="black"/>
<path d="M53.0769 80.3606C51.7788 82.4375 51 84.9038 51 87.5C51 90.0962 51.7788 92.5625 53.0769 94.6394C55.4135 98.4038 59.6971 101 64.5 101C69.3029 101 73.5865 98.4038 75.9231 94.6394C77.2211 92.5625 78 90.0962 78 87.5C78 84.9038 77.2211 82.4375 75.9231 80.3606C73.5865 76.5962 69.3029 74 64.5 74C59.8269 74 55.5433 76.5962 53.0769 80.3606Z" fill="black"/>
<path d="M52 59H89.7843C93.7201 59 97 55.5909 97 51.5C97 47.4091 93.7201 44 89.7843 44H52C53.312 46.1818 54.0991 48.7727 54.0991 51.5C54.0991 54.2273 53.312 56.8182 52 59Z" fill="black"/>
<path d="M20 44H7.28477C3.31126 44 0 47.4091 0 51.5C0 55.5909 3.31126 59 7.28477 59H20C18.6755 56.8182 17.8808 54.2273 17.8808 51.5C17.8808 48.7727 18.543 46.1818 20 44Z" fill="black"/>
<path d="M24.0769 44.3606C22.7788 46.4375 22 48.9038 22 51.5C22 54.0962 22.7788 56.5625 24.0769 58.6394C26.4135 62.4038 30.6971 65 35.5 65C40.3029 65 44.5865 62.4038 46.9231 58.6394C48.2212 56.5625 49 54.0962 49 51.5C49 48.9038 48.2212 46.4375 46.9231 44.3606C44.5865 40.5962 40.3029 38 35.5 38C30.6971 38 26.5433 40.4663 24.0769 44.3606Z" fill="black"/>
<path d="M39 6H7.10265C3.22848 6 0 9.40909 0 13.5C0 17.5909 3.22848 21 7.10265 21H39C37.7086 18.8182 36.9338 16.2273 36.9338 13.5C36.9338 10.7727 37.7086 8.18182 39 6Z" fill="black"/>
<path d="M72 21H89.8385C93.7448 21 97 17.8182 97 14C97 10.1818 93.7448 7 89.8385 7H72C73.3021 9.03636 74.0833 11.4545 74.0833 14C74.0833 16.5455 73.3021 18.9636 72 21Z" fill="black"/>
<path d="M44.0769 6.36058C42.7788 8.4375 42 10.9038 42 13.5C42 16.0962 42.7788 18.5625 44.0769 20.6394C46.4135 24.4038 50.6971 27 55.5 27C60.3029 27 64.5865 24.4038 66.9231 20.6394C68.2212 18.5625 69 16.0962 69 13.5C69 10.9038 68.2212 8.4375 66.9231 6.36058C64.5865 2.59615 60.4327 0 55.5 0C50.6971 0 46.4135 2.59615 44.0769 6.36058Z" fill="black"/>
</svg>
